<?xml version="1.0" standalone="no"?>
<!DOCTYPE svg PUBLIC "-//W3C//DTD SVG 20010904//EN"
 "http://www.w3.org/TR/2001/REC-SVG-20010904/DTD/svg10.dtd">
<svg version="1.0" xmlns="http://www.w3.org/2000/svg"
 width="35.000000pt" height="35.000000pt" viewBox="0 0 35.000000 35.000000"
 preserveAspectRatio="xMidYMid meet">

<g transform="translate(0.000000,35.000000) scale(0.100000,-0.100000)"
fill="#000000" stroke="none">
<path d="M100 282 l-64 -37 3 -100 c1 -55 5 -103 7 -107 7 -10 251 -10 258 0
2 4 6 52 7 107 l3 99 -64 38 c-36 21 -69 37 -75 37 -5 0 -39 -17 -75 -37z
m178 -136 l3 -86 -26 0 c-23 0 -25 3 -25 50 l0 50 -55 0 -55 0 0 -50 c0 -47
-2 -50 -25 -50 -25 0 -25 1 -25 85 l0 85 52 29 53 30 50 -28 50 -28 3 -87z"/>
</g>
</svg>
